<?xml version="1.0" encoding="UTF-8" standalone="no"?>
<!-- Created with Inkscape (http://www.inkscape.org/) -->

<svg
   width="1023.9999"
   height="1023.9999"
   viewBox="0 0 270.93331 270.93331"
   version="1.1"
   id="svg1"
   xml:space="preserve"
   xmlns="http://www.w3.org/2000/svg"
   xmlns:svg="http://www.w3.org/2000/svg"><defs
     id="defs1"><rect
       x="0"
       y="747.37836"
       width="1024.8333"
       height="276.62164"
       id="rect5" /></defs><g
     id="layer2"><rect
       style="fill:#000000;fill-opacity:1;stroke-width:0.23774"
       id="rect2"
       width="85.319664"
       height="177.36029"
       x="91.31012"
       y="20.206913" /><path
       style="fill:#ffffff;stroke-width:0.264583"
       d="m 115.78828,74.744791 7.37526,0.03307 12.50156,-20.6375 7.11068,16.271875 c 0,0 1.81901,4.307747 4.79557,4.299479 2.97656,-0.0083 6.49056,0 6.49056,0 0,0 0.2497,0.02289 0.24824,-0.09111 -0.002,-0.114009 0.009,-4.712298 0.009,-4.712298 0,0 -0.003,-0.195858 -0.2514,-0.195858 -0.24848,0 -2.96563,0.0011 -2.96563,0.0011 0,0 -1.1971,-0.128283 -1.83437,-1.59576 -0.63726,-1.467414 -14.84264,-32.465147 -14.84264,-32.465147 0,0 -0.80615,-1.976107 -4.02663,-1.976107 -3.22047,0 -7.97884,0.04134 -7.97884,0.04134 0,0 -0.24391,0 -0.24805,0.186037 -0.004,0.186033 0,4.956802 0,4.956802 0,0 -0.0248,0.210841 0.22324,0.206705 0.24805,-0.0041 5.13044,-0.02066 5.13044,-0.02066 0,0 1.33119,-0.111622 2.096,1.418 0.76481,1.529623 2.87283,6.213909 2.87283,6.213909 0,0 0.33909,0.479415 -0.24556,1.356395 -0.58465,0.876972 -16.46002,26.709769 -16.46002,26.709769 z"
       id="path3" /><path
       style="fill:#ffffff;stroke-width:0.264583"
       d="m 115.78828,129.03014 7.37526,0.0331 12.50156,-20.6375 7.11068,16.27188 c 0,0 1.81901,4.30775 4.79557,4.29948 2.97656,-0.008 6.49056,0 6.49056,0 0,0 0.2497,0.0229 0.24824,-0.0911 -0.002,-0.11401 0.009,-4.7123 0.009,-4.7123 0,0 -0.003,-0.19586 -0.2514,-0.19586 -0.24848,0 -2.96563,0.001 -2.96563,0.001 0,0 -1.1971,-0.12828 -1.83437,-1.59576 -0.63726,-1.46741 -14.84264,-32.465149 -14.84264,-32.465149 0,0 -0.80615,-1.976107 -4.02663,-1.976107 -3.22047,0 -7.97884,0.04134 -7.97884,0.04134 0,0 -0.24391,0 -0.24805,0.186037 -0.004,0.186033 0,4.956802 0,4.956802 0,0 -0.0248,0.210841 0.22324,0.206705 0.24805,-0.0041 5.13044,-0.02066 5.13044,-0.02066 0,0 1.33119,-0.111622 2.096,1.418 0.76481,1.529623 2.87283,6.213912 2.87283,6.213912 0,0 0.33909,0.47942 -0.24556,1.3564 -0.58465,0.87697 -16.46002,26.70976 -16.46002,26.70976 z"
       id="path3-2" /><path
       style="fill:#ffffff;stroke-width:0.264583"
       d="m 115.78828,183.01727 7.37525,0.0331 12.50156,-20.6375 7.11068,16.27188 c 0,0 1.81901,4.30775 4.79557,4.29948 2.97657,-0.008 6.49056,0 6.49056,0 0,0 0.2497,0.0229 0.24824,-0.0911 -0.002,-0.11401 0.009,-4.7123 0.009,-4.7123 0,0 -0.003,-0.19586 -0.2514,-0.19586 -0.24848,0 -2.96563,0.001 -2.96563,0.001 0,0 -1.1971,-0.12828 -1.83437,-1.59576 -0.63726,-1.46741 -14.84264,-32.46515 -14.84264,-32.46515 0,0 -0.80615,-1.9761 -4.02663,-1.9761 -3.22047,0 -7.97884,0.0413 -7.97884,0.0413 0,0 -0.24391,0 -0.24805,0.18603 -0.004,0.18604 0,4.9568 0,4.9568 0,0 -0.0248,0.21085 0.22324,0.20671 0.24805,-0.004 5.13044,-0.0207 5.13044,-0.0207 0,0 1.33119,-0.11162 2.096,1.418 0.76481,1.52962 2.87283,6.21391 2.87283,6.21391 0,0 0.33909,0.47942 -0.24556,1.3564 -0.58465,0.87697 -16.46002,26.70976 -16.46002,26.70976 z"
       id="path3-2-6" /><text
       xml:space="preserve"
       transform="scale(0.26458333)"
       id="text1"
       style="font-style:normal;font-variant:normal;font-weight:800;font-stretch:normal;font-size:192px;font-family:'JetBrainsMono Nerd Font';-inkscape-font-specification:'JetBrainsMono Nerd Font Ultra-Bold';text-align:center;writing-mode:lr-tb;direction:ltr;white-space:pre;shape-inside:url(#rect5);fill:#2190d0;fill-opacity:1"
       x="512.41663"
       y="0"><tspan
         x="224.41681"
         y="919.74254"
         id="tspan4">PL<tspan
   style="fill:#000000"
   id="tspan3">Sec</tspan></tspan></text></g><style
     type="text/css"
     id="style1">
	.st0{fill:#FFFFFF;}
	.st1{fill:#0080C9;}
</style></svg>
